<?xml version="1.0" encoding="utf-8"?>
<svg xmlns="http://www.w3.org/2000/svg" version="1.2" baseProfile="tiny-ps" viewBox="0 0 100 100" width="100%" height="100%">
  <rect width="100" height="100" rx="22" fill="#0a0f25"/>
  <!-- Letter P -->
  <path d="M 17,35 H 29 C 33,35 36,38 36,43 C 36,48 33,51 29,51 H 23 V 65 H 17 Z M 23,40 H 28 C 30,40 30,46 28,46 H 23 Z" fill="#ffffff" fill-rule="evenodd"/>
  <!-- Letter B -->
  <path d="M 41,35 H 53 C 56,35 58,37 58,41 C 58,44 56,47 53,48 C 57,49 59,51 59,56 C 59,61 56,65 52,65 H 41 Z M 47,39 H 51 C 53,39 53,46 51,46 H 47 Z M 47,50 H 52 C 54,50 54,61 52,61 H 47 Z" fill="#c9a84c" fill-rule="evenodd"/>
  <!-- Letter N -->
  <path d="M 63,35 H 69 L 76,54 V 35 H 82 V 65 H 76 L 69,46 V 65 H 63 Z" fill="#ffffff"/>
</svg>
